<svg xmlns="http://www.w3.org/2000/svg" viewBox="0 0 1014.05 138.3"><title>アセット 2welcome</title><g id="レイヤー_2" data-name="レイヤー 2"><g id="レイヤー_1-2" data-name="レイヤー 1"><path d="M9.82,5.14C19.91,1.77,26.82,11.33,29.3,19c3.54,10.62,17.53,59.5,17.53,59.5,1.59.53,9-33.12,12-38.61,5.14-9.56,19.48-11,25.32.71C90,52.06,97.65,81.81,97.65,81.81c2.3.89,14-50.82,18.95-65.34C120,6.2,129,4.6,136.08,7.79c5.66,2.48,8.14,10.8,6.19,16.65-1.94,6-25,90-31.52,101.29-6.55,11.15-22.13,7.79-26,.88-4.78-8.14-13.1-36.12-13.1-36.12,1.42,0-9,31.87-13.1,36.65-6.91,7.79-19.13,6.73-24.62-4.07C28.06,111.74,1.32,31.34.26,23.73-1.16,13.46,3.44,7.26,9.82,5.14Z"/><path d="M252.77,119.88c0,5.49-4.79,13.81-11.87,14.17-6.55.35-57,.88-62.86.88-7.26,0-15.94-2.65-16.47-15.23-.53-11.51,0-53.83.35-79.15.18-9.21.18-16.47.18-18.95,0-11.86,5.14-17.53,16.29-17.88h9.74c17.53,0,47.64.35,54.54.71,8.68.17,12.57,7.79,12.57,14.69,0,8.33-5.31,13.46-14.16,13.82-3.9.17-11.69.17-22.84.17h-22c-2.13,0-3.37,1.42-3.72,4.43-.18.71-.36,7.79-.36,16.82,14.53.36,40.73,1.07,45.69,1.07a9.53,9.53,0,0,1,6.91,3,16.46,16.46,0,0,1,3.89,11.15c-.35,5.85-5.31,12.57-12.22,12.75-1.23.18-3.89.18-8,.18-10.1,0-26.57-.18-36.48-.36-.18,9.57-.18,17.36-.18,19,0,3,3.37,4.07,6.38,4.07,8.14,0,35.59,0,43,.36C249.22,105.89,252.77,114.22,252.77,119.88Z"/><path d="M384.51,116.34a14.52,14.52,0,0,1-4.07,10.8,17.69,17.69,0,0,1-12.75,5.49c-9.74.18-55.78.36-63.75.36-8.15,0-23.55-4.79-23.91-22.32-.35-15.76-.71-84.11-.35-92.43C280,6.91,286.05,0,295.79,0a16.27,16.27,0,0,1,12,5c3.19,3.19,4.78,7.79,4.61,13.1-.18,7.26.35,40.91.53,60.92v1.59c0,7.26.18,12.57.18,14,0,3.72,1.77,5.67,5,5.67h17.18c12.22,0,27.27.17,32.58.17C378.84,100.4,384.15,108.37,384.51,116.34Z"/><path d="M506,106.6c3.19,4.25,4.25,8.68,3.19,12.75-1.42,5-5.85,9.21-12.58,12-5.31,2.3-14.16,3.54-24.43,3.54-15.23,0-29-2.65-37-7.26C424,121.3,398.49,102,404,59.32c5.14-41.26,37.37-57.2,57.73-57.73.71,0,1.42-.17,2.12-.17,20.55,0,39.14,9.2,44.45,17.7,5.84,8.86,3.19,14.53-.18,18.78A11.88,11.88,0,0,1,498.9,42a20.45,20.45,0,0,1-11.16-3.72c-5-3.19-11.69-4.78-18.77-4.78a47.19,47.19,0,0,0-9.92,1.06c-9.38,2.3-22.84,13.81-23.9,29.4-.89,14.69,3.19,25.14,12.92,33.11,6,5,17.54,7.26,25.68,7.26a27,27,0,0,0,3.9-.18c2.65-.35,5.49-.88,8-1.41a47.9,47.9,0,0,1,9.56-1.42C500,101.29,503.32,102.88,506,106.6Z"/><path d="M628.87,125.19c-9.56,5.14-21.25,8-34,8-15.58,0-30.46-4.25-39.84-11.33-16.65-12.75-30.11-41.26-23.91-71.36,4.78-23,28.16-47.11,58.79-47.64h1.42c29.75,0,55.95,19.48,63.92,47.28C663.4,78.62,651.36,113,628.87,125.19ZM617,44.27c-5.49-5.84-14.16-9.21-23.72-9.21-8.33,0-16.12,2.48-21.43,7.08-9.39,7.8-12.93,20.9-9.39,36.13,2.84,12.57,15.76,22.31,30.64,23,12.22.53,27.62-6.2,31.34-19.3C627.63,71.54,628.69,56.49,617,44.27Z"/><path d="M803.82,120.06c-.54,7.61-5.85,12.93-13.11,13.28-6.9.35-14.7-4.25-15.05-13.28-.18-5-1.06-30.28-1.77-48.17l-.36-13.28c-5.48,8.15-15.93,23.91-18.77,26.74-3.54,3.72-7.61,5.67-12,5.67-4.6,0-9-2.3-13.1-6.55-5.84-6.38-15-17.71-19.83-23.73,0,13.1,0,53.3-.18,58.43a15.23,15.23,0,0,1-14.52,14.7h-.89c-4.6,0-12.57-1.77-14-14.17-.88-8.32-.17-54.36.18-79V40c0-7.79.18-13.28.18-15.41,0-11.15,3.72-17.7,11.51-20.36a17.37,17.37,0,0,1,4.07-.53c7.09,0,12.75,6,19.13,13.46,8,9.38,22.31,31.16,26.56,37.71,6.37-10.44,27.09-44.09,32-48A21.71,21.71,0,0,1,787,2.12a14.09,14.09,0,0,1,8.86,3c6.9,5.66,7.43,12.39,7.43,21.24,0,2.31.18,9.74.18,19.31v.53C803.82,71.89,804.17,114.92,803.82,120.06Z"/><path d="M923,119.88c0,5.49-4.78,13.81-11.86,14.17-6.55.35-57,.88-62.86.88-7.26,0-15.94-2.65-16.47-15.23-.53-11.51,0-53.83.35-79.15.18-9.21.18-16.47.18-18.95,0-11.86,5.13-17.53,16.29-17.88h9.74c17.53,0,47.63.35,54.54.71,8.68.17,12.57,7.79,12.57,14.69,0,8.33-5.31,13.46-14.16,13.82-3.9.17-11.69.17-22.85.17h-22c-2.13,0-3.37,1.42-3.72,4.43-.18.71-.36,7.79-.36,16.82,14.52.36,40.73,1.07,45.69,1.07a9.49,9.49,0,0,1,6.9,3,16.47,16.47,0,0,1,3.9,11.15c-.35,5.85-5.31,12.57-12.22,12.75-1.24.18-3.89.18-8,.18-10.09,0-26.56-.18-36.47-.36-.18,9.57-.18,17.36-.18,19,0,3,3.36,4.07,6.37,4.07,8.15,0,35.6,0,43,.36C919.44,105.89,923,114.22,923,119.88Z"/><path d="M1014,22.49c-.89,9.74-5.31,62-6.38,67.64-1.06,6-5,9.39-10.62,9.74h-.53c-5.14,0-9-3.72-10.45-9.91-1.24-5-5.49-60.39-5.84-68.53-.36-6,1.06-11.16,4.42-14.88A17.76,17.76,0,0,1,998.24.71a14.61,14.61,0,0,1,11.15,5C1012.76,9.56,1014.35,15.76,1014,22.49Zm-3,89.6c2,3.54,2.48,8,1.41,12.93-1.59,7.79-8,13.28-15.4,13.28a16.87,16.87,0,0,1-16.82-16.65c0-7.26,4.78-17.53,15.05-17.53a26,26,0,0,1,3.72.36C1004.61,105.72,1008.69,108.37,1011,112.09Z"/></g></g></svg>